# xmcd
#
# Track frame offsets: 
#        150
#        13914
#        27745
#        49676
#        63467
#        81474
#        93239
#        109615
#        131746
#        143210
#        166514
#        181358
#
# Disc length: 2568 seconds
#
# Revision: 1
# Processed by: cddbd v1.5.2PL0 Copyright (c) Steve Scherf et al.
# Submitted via: ExactAudioCopy v1.0b1
#
DISCID=a20a060c
DTITLE=Jeff and Vida - Loaded
DYEAR=2004
DGENRE=Country
TTITLE0=High Load Heavy Load
TTITLE1=Don't Give Your Heart to a Stranger
TTITLE2=Blessed But Not Favored
TTITLE3=Let Him Go
TTITLE4=Lonely Eyes
TTITLE5=Baby Don't Do Me Wrong
TTITLE6=Everybody's Darling
TTITLE7=I Cried
TTITLE8=I Remember Wrong
TTITLE9=The Blacktop Shine
TTITLE10=Fresh Start
TTITLE11=Trouble Sorrow
EXTD=
EXTT0=
EXTT1=
EXTT2=
EXTT3=
EXTT4=
EXTT5=
EXTT6=
EXTT7=
EXTT8=
EXTT9=
EXTT10=
EXTT11=
PLAYORDER=
